<svg xmlns="http://www.w3.org/2000/svg" width="1600" height="720" viewBox="0 0 1600 720" role="img" aria-label="Seedream 5 Pro 提示词与技能大全">
  <rect width="1600" height="720" fill="#0b1014"/>
  <path d="M0 560 C300 420 470 650 800 500 C1110 360 1230 520 1600 360 L1600 720 L0 720 Z" fill="#123b34"/>
  <circle cx="1280" cy="180" r="210" fill="#27d06f" opacity=".25"/>
  <rect x="90" y="88" width="1420" height="544" rx="44" fill="#11191f" stroke="#2be07a" stroke-opacity=".38"/>
  <text x="150" y="230" fill="#f4fff8" font-family="Arial, sans-serif" font-size="78" font-weight="800">Seedream 5 Pro</text>
  <text x="150" y="320" fill="#d7ffe6" font-family="Arial, sans-serif" font-size="58" font-weight="700">提示词与技能大全</text>
  <text x="150" y="410" fill="#a6b8ae" font-family="Arial, sans-serif" font-size="30">ImagineVid 精选，可复用的图像生成工作流</text>
  <g transform="translate(1030 180)">
    <rect x="0" y="0" width="360" height="270" rx="28" fill="#17262c" stroke="#78ffad" stroke-opacity=".5"/>
    <rect x="34" y="36" width="292" height="44" rx="12" fill="#2be07a"/>
    <rect x="34" y="106" width="210" height="26" rx="8" fill="#d7ffe6" opacity=".86"/>
    <rect x="34" y="150" width="260" height="22" rx="8" fill="#7fa08c"/>
    <rect x="34" y="190" width="180" height="22" rx="8" fill="#7fa08c"/>
  </g>
  <text x="150" y="545" fill="#2be07a" font-family="Inter, Arial, sans-serif" font-size="28" font-weight="700">imaginevid</text>
</svg>
